<?xml version="1.0" encoding="UTF-8" standalone="no" ?>
<!DOCTYPE svg PUBLIC "-//W3C//DTD SVG 1.1//EN" "http://www.w3.org/Graphics/SVG/1.1/DTD/svg11.dtd">
<svg xmlns="http://www.w3.org/2000/svg" xmlns:xlink="http://www.w3.org/1999/xlink" version="1.1" width="550" height="435" viewBox="0 0 550 435" xml:space="preserve">
<desc>Created with Fabric.js 3.6.3</desc>
<defs>
</defs>
<g transform="matrix(0.72 0 0 0.85 321.53 169.26)"  >
<g style=""   >
		<g transform="matrix(1 0 0 1 0 -150)"  >
<rect style="stroke: none; stroke-width: 1; stroke-dasharray: none; stroke-linecap: butt; stroke-dashoffset: 0; stroke-linejoin: miter; stroke-miterlimit: 4; fill: rgb(19,19,19); fill-rule: nonzero; opacity: 1;"  x="-450" y="-300" rx="0" ry="0" width="900" height="600" />
</g>
		<g transform="matrix(1 0 0 1 0 -23)"  >
<path style="stroke: none; stroke-width: 1; stroke-dasharray: none; stroke-linecap: butt; stroke-dashoffset: 0; stroke-linejoin: miter; stroke-miterlimit: 4; fill: rgb(255,14,14); fill-rule: nonzero; opacity: 1;"  transform=" translate(-450, -427)" d="M 0 320 L 21.5 308.5 C 43 297 86 274 128.8 267.2 C 171.7 260.3 214.3 269.7 257.2 291.2 C 300 312.7 343 346.3 385.8 350.3 C 428.7 354.3 471.3 328.7 514.2 310.7 C 557 292.7 600 282.3 642.8 286.2 C 685.7 290 728.3 308 771.2 304.8 C 814 301.7 857 277.3 878.5 265.2 L 900 253 L 900 601 L 878.5 601 C 857 601 814 601 771.2 601 C 728.3 601 685.7 601 642.8 601 C 600 601 557 601 514.2 601 C 471.3 601 428.7 601 385.8 601 C 343 601 300 601 257.2 601 C 214.3 601 171.7 601 128.8 601 C 86 601 43 601 21.5 601 L 0 601 Z" stroke-linecap="round" />
</g>
		<g transform="matrix(1 0 0 1 0 22)"  >
<path style="stroke: none; stroke-width: 1; stroke-dasharray: none; stroke-linecap: butt; stroke-dashoffset: 0; stroke-linejoin: miter; stroke-miterlimit: 4; fill: rgb(140,0,0); fill-rule: nonzero; opacity: 1;"  transform=" translate(-450, -472)" d="M 0 343 L 21.5 353 C 43 363 86 383 128.8 383 C 171.7 383 214.3 363 257.2 361.2 C 300 359.3 343 375.7 385.8 373.8 C 428.7 372 471.3 352 514.2 353.7 C 557 355.3 600 378.7 642.8 384.5 C 685.7 390.3 728.3 378.7 771.2 373 C 814 367.3 857 367.7 878.5 367.8 L 900 368 L 900 601 L 878.5 601 C 857 601 814 601 771.2 601 C 728.3 601 685.7 601 642.8 601 C 600 601 557 601 514.2 601 C 471.3 601 428.7 601 385.8 601 C 343 601 300 601 257.2 601 C 214.3 601 171.7 601 128.8 601 C 86 601 43 601 21.5 601 L 0 601 Z" stroke-linecap="round" />
</g>
		<g transform="matrix(1 0 0 1 0 48)"  >
<path style="stroke: none; stroke-width: 1; stroke-dasharray: none; stroke-linecap: butt; stroke-dashoffset: 0; stroke-linejoin: miter; stroke-miterlimit: 4; fill: rgb(0,0,0); fill-rule: nonzero; opacity: 1;"  transform=" translate(-450, -498)" d="M 0 395 L 21.5 402.8 C 43 410.7 86 426.3 128.8 433.8 C 171.7 441.3 214.3 440.7 257.2 432.7 C 300 424.7 343 409.3 385.8 410.8 C 428.7 412.3 471.3 430.7 514.2 444.3 C 557 458 600 467 642.8 457.7 C 685.7 448.3 728.3 420.7 771.2 412.7 C 814 404.7 857 416.3 878.5 422.2 L 900 428 L 900 601 L 878.5 601 C 857 601 814 601 771.2 601 C 728.3 601 685.7 601 642.8 601 C 600 601 557 601 514.2 601 C 471.3 601 428.7 601 385.8 601 C 343 601 300 601 257.2 601 C 214.3 601 171.7 601 128.8 601 C 86 601 43 601 21.5 601 L 0 601 Z" stroke-linecap="round" />
</g>
		<g transform="matrix(1 0 0 1 0 83.25)"  >
<path style="stroke: none; stroke-width: 1; stroke-dasharray: none; stroke-linecap: butt; stroke-dashoffset: 0; stroke-linejoin: miter; stroke-miterlimit: 4; fill: rgb(140,0,0); fill-rule: nonzero; opacity: 1;"  transform=" translate(-450, -533.26)" d="M 0 476 L 21.5 474 C 43 472 86 468 128.8 470 C 171.7 472 214.3 480 257.2 486.3 C 300 492.7 343 497.3 385.8 493.3 C 428.7 489.3 471.3 476.7 514.2 471.8 C 557 467 600 470 642.8 469.2 C 685.7 468.3 728.3 463.7 771.2 466.3 C 814 469 857 479 878.5 484 L 900 489 L 900 601 L 878.5 601 C 857 601 814 601 771.2 601 C 728.3 601 685.7 601 642.8 601 C 600 601 557 601 514.2 601 C 471.3 601 428.7 601 385.8 601 C 343 601 300 601 257.2 601 C 214.3 601 171.7 601 128.8 601 C 86 601 43 601 21.5 601 L 0 601 Z" stroke-linecap="round" />
</g>
		<g transform="matrix(1 0 0 1 0 101.59)"  >
<path style="stroke: none; stroke-width: 1; stroke-dasharray: none; stroke-linecap: butt; stroke-dashoffset: 0; stroke-linejoin: miter; stroke-miterlimit: 4; fill: rgb(255,14,14); fill-rule: nonzero; opacity: 1;"  transform=" translate(-450, -551.59)" d="M 0 518 L 21.5 514.3 C 43 510.7 86 503.3 128.8 502.3 C 171.7 501.3 214.3 506.7 257.2 515.8 C 300 525 343 538 385.8 541.2 C 428.7 544.3 471.3 537.7 514.2 529.7 C 557 521.7 600 512.3 642.8 513.8 C 685.7 515.3 728.3 527.7 771.2 537.2 C 814 546.7 857 553.3 878.5 556.7 L 900 560 L 900 601 L 878.5 601 C 857 601 814 601 771.2 601 C 728.3 601 685.7 601 642.8 601 C 600 601 557 601 514.2 601 C 471.3 601 428.7 601 385.8 601 C 343 601 300 601 257.2 601 C 214.3 601 171.7 601 128.8 601 C 86 601 43 601 21.5 601 L 0 601 Z" stroke-linecap="round" />
</g>
</g>
</g>
</svg>