<svg id="visual" viewBox="0 0 800 1200" width="800" height="1200" xmlns="http://www.w3.org/2000/svg" xmlns:xlink="http://www.w3.org/1999/xlink" version="1.1"><rect x="0" y="0" width="900" height="600" fill="#131313"></rect><path d="M0 253L21.5 261.7C43 270.3 86 287.7 128.8 291.8C171.7 296 214.3 287 257.2 294.2C300 301.3 343 324.7 385.8 329.8C428.7 335 471.3 322 514.2 322.2C557 322.3 600 335.7 642.8 337C685.7 338.3 728.3 327.7 771.2 312C814 296.3 857 275.7 878.5 265.3L900 255L900 601L878.5 601C857 601 814 601 771.2 601C728.3 601 685.7 601 642.8 601C600 601 557 601 514.2 601C471.3 601 428.7 601 385.8 601C343 601 300 601 257.2 601C214.3 601 171.7 601 128.8 601C86 601 43 601 21.5 601L0 601Z" fill="#ff0e0e"></path><path d="M0 379L21.5 368.3C43 357.7 86 336.3 128.8 334.2C171.7 332 214.3 349 257.2 366.7C300 384.3 343 402.7 385.8 405.8C428.7 409 471.3 397 514.2 388.8C557 380.7 600 376.3 642.8 364.2C685.7 352 728.3 332 771.2 341C814 350 857 388 878.5 407L900 426L900 601L878.5 601C857 601 814 601 771.2 601C728.3 601 685.7 601 642.8 601C600 601 557 601 514.2 601C471.3 601 428.7 601 385.8 601C343 601 300 601 257.2 601C214.3 601 171.7 601 128.8 601C86 601 43 601 21.5 601L0 601Z" fill="#8c0000"></path><path d="M0 411L21.5 413.2C43 415.3 86 419.7 128.8 416.2C171.7 412.7 214.3 401.3 257.2 403C300 404.7 343 419.3 385.8 432.2C428.7 445 471.3 456 514.2 458.8C557 461.7 600 456.3 642.8 449.8C685.7 443.3 728.3 435.7 771.2 427.3C814 419 857 410 878.5 405.5L900 401L900 601L878.5 601C857 601 814 601 771.2 601C728.3 601 685.7 601 642.8 601C600 601 557 601 514.2 601C471.3 601 428.7 601 385.8 601C343 601 300 601 257.2 601C214.3 601 171.7 601 128.8 601C86 601 43 601 21.5 601L0 601Z" fill="#000000"></path><path d="M0 505L21.5 503.8C43 502.7 86 500.3 128.8 497.7C171.7 495 214.3 492 257.2 482C300 472 343 455 385.8 445.7C428.7 436.3 471.3 434.7 514.2 437.7C557 440.7 600 448.3 642.8 450.7C685.7 453 728.3 450 771.2 448.3C814 446.7 857 446.3 878.5 446.2L900 446L900 601L878.5 601C857 601 814 601 771.2 601C728.3 601 685.7 601 642.8 601C600 601 557 601 514.2 601C471.3 601 428.7 601 385.8 601C343 601 300 601 257.2 601C214.3 601 171.7 601 128.8 601C86 601 43 601 21.5 601L0 601Z" fill="#8c0000"></path><path d="M0 555L21.5 551.2C43 547.3 86 539.7 128.8 530.8C171.7 522 214.3 512 257.2 509.2C300 506.3 343 510.7 385.8 517C428.7 523.3 471.3 531.7 514.2 529.7C557 527.7 600 515.3 642.8 515.3C685.7 515.3 728.3 527.7 771.2 529.8C814 532 857 524 878.5 520L900 516L900 601L878.5 601C857 601 814 601 771.2 601C728.3 601 685.7 601 642.8 601C600 601 557 601 514.2 601C471.3 601 428.7 601 385.8 601C343 601 300 601 257.2 601C214.3 601 171.7 601 128.8 601C86 601 43 601 21.5 601L0 601Z" fill="#ff0e0e"></path></svg>