<svg id="visual" viewBox="0 0 750 750" width="7500" height="750" xmlns="http://www.w3.org/2000/svg" xmlns:xlink="http://www.w3.org/1999/xlink" version="1.1"><rect x="0" y="0" width="900" height="600" fill="#131313"></rect><path d="M0 320L21.5 308.5C43 297 86 274 128.8 267.2C171.7 260.3 214.3 269.7 257.2 291.2C300 312.7 343 346.3 385.8 350.3C428.7 354.3 471.3 328.7 514.2 310.7C557 292.7 600 282.3 642.8 286.2C685.7 290 728.3 308 771.2 304.8C814 301.7 857 277.3 878.5 265.2L900 253L900 601L878.5 601C857 601 814 601 771.2 601C728.3 601 685.7 601 642.8 601C600 601 557 601 514.2 601C471.3 601 428.7 601 385.8 601C343 601 300 601 257.2 601C214.3 601 171.7 601 128.8 601C86 601 43 601 21.5 601L0 601Z" fill="#ff0e0e"></path><path d="M0 343L21.5 353C43 363 86 383 128.8 383C171.7 383 214.3 363 257.2 361.2C300 359.3 343 375.7 385.8 373.8C428.7 372 471.3 352 514.2 353.7C557 355.3 600 378.7 642.8 384.5C685.7 390.3 728.3 378.7 771.2 373C814 367.3 857 367.7 878.5 367.8L900 368L900 601L878.5 601C857 601 814 601 771.2 601C728.3 601 685.7 601 642.8 601C600 601 557 601 514.2 601C471.3 601 428.7 601 385.8 601C343 601 300 601 257.2 601C214.3 601 171.7 601 128.8 601C86 601 43 601 21.5 601L0 601Z" fill="#8c0000"></path><path d="M0 395L21.5 402.8C43 410.7 86 426.3 128.8 433.8C171.7 441.3 214.3 440.7 257.2 432.7C300 424.7 343 409.3 385.8 410.8C428.7 412.3 471.3 430.7 514.2 444.3C557 458 600 467 642.8 457.7C685.7 448.3 728.3 420.7 771.2 412.7C814 404.7 857 416.3 878.5 422.2L900 428L900 601L878.5 601C857 601 814 601 771.2 601C728.3 601 685.7 601 642.8 601C600 601 557 601 514.2 601C471.3 601 428.7 601 385.8 601C343 601 300 601 257.2 601C214.3 601 171.7 601 128.8 601C86 601 43 601 21.5 601L0 601Z" fill="#000000"></path><path d="M0 476L21.5 474C43 472 86 468 128.8 470C171.7 472 214.3 480 257.2 486.3C300 492.7 343 497.3 385.8 493.3C428.7 489.3 471.3 476.7 514.2 471.8C557 467 600 470 642.8 469.2C685.7 468.3 728.3 463.7 771.2 466.3C814 469 857 479 878.5 484L900 489L900 601L878.5 601C857 601 814 601 771.2 601C728.3 601 685.7 601 642.8 601C600 601 557 601 514.2 601C471.3 601 428.7 601 385.8 601C343 601 300 601 257.2 601C214.3 601 171.7 601 128.8 601C86 601 43 601 21.5 601L0 601Z" fill="#8c0000"></path><path d="M0 518L21.5 514.3C43 510.7 86 503.3 128.8 502.3C171.7 501.3 214.3 506.7 257.2 515.8C300 525 343 538 385.8 541.2C428.7 544.3 471.3 537.7 514.2 529.7C557 521.7 600 512.3 642.8 513.8C685.7 515.3 728.3 527.7 771.2 537.2C814 546.7 857 553.3 878.5 556.7L900 560L900 601L878.5 601C857 601 814 601 771.2 601C728.3 601 685.7 601 642.8 601C600 601 557 601 514.2 601C471.3 601 428.7 601 385.8 601C343 601 300 601 257.2 601C214.3 601 171.7 601 128.8 601C86 601 43 601 21.5 601L0 601Z" fill="#ff0e0e"></path></svg>